# xmcd
#
# Track frame offsets:
#	150
#	19148
#	36341
#	50425
#	63131
#	78472
#	91917
#	106590
#	118561
#	133911
#	169383
#
# Disc length: 2458 seconds
# Revision: 5
# Processed by: cddbd v1.5.2PL0 Copyright (c) Steve Scherf et al.
# Submitted via: dBpowerAMP V12.0
#
DISCID=8b09980b
DTITLE=The blues brothers - The blues brothers
DYEAR=1980
DGENRE=Soundtrack
TTITLE0=She caught the katy
TTITLE1=Peter Gunn theme
TTITLE2=Gimme some lovin'
TTITLE3=Shake a tail feather
TTITLE4=Everybody needs somebody to love
TTITLE5=The old landmark
TTITLE6=Think
TTITLE7=Theme from Rawhide
TTITLE8=Minnie the moocher
TTITLE9=Sweet home Chicago
TTITLE10=Jailhouse rock
EXTD=
EXTT0=
EXTT1=
EXTT2=
EXTT3=
EXTT4=
EXTT5=
EXTT6=
EXTT7=
EXTT8=
EXTT9=
EXTT10=
PLAYORDER=
